<svg xmlns="http://www.w3.org/2000/svg" viewBox="0 0 120 80" fill="none" stroke="#1a3300" stroke-width="1.5" stroke-linecap="round" stroke-linejoin="round" opacity="0.15">
  <!-- Sitting cat silhouette — simple line sketch -->
  <!-- Ears -->
  <path d="M35 25 L30 10 L40 22" />
  <path d="M55 22 L65 8 L60 25" />
  <!-- Head -->
  <ellipse cx="47" cy="30" rx="18" ry="14" />
  <!-- Eyes (closed, peaceful) -->
  <path d="M40 28 Q43 25 46 28" />
  <path d="M50 28 Q53 25 56 28" />
  <!-- Nose -->
  <path d="M46 33 L47 35 L48 33" />
  <!-- Body -->
  <path d="M35 40 Q30 65 25 75" />
  <path d="M60 40 Q68 60 70 75" />
  <path d="M35 40 Q47 55 60 40" />
  <!-- Tail -->
  <path d="M25 75 Q10 65 18 55 Q22 50 20 48" />
  <!-- Front paws -->
  <path d="M33 72 Q32 78 30 78" />
  <path d="M40 72 Q40 78 39 78" />
</svg>
