<svg xmlns="http://www.w3.org/2000/svg" viewBox="0 0 300 200" fill="none">
  <!-- 大爪印 1 -->
  <g transform="translate(40, 30) rotate(-15)" fill="#1a3300">
    <!-- 掌垫 -->
    <ellipse cx="30" cy="45" rx="16" ry="13"/>
    <!-- 四个趾 -->
    <ellipse cx="12" cy="22" rx="7" ry="9" transform="rotate(-10 12 22)"/>
    <ellipse cx="27" cy="14" rx="6.5" ry="9"/>
    <ellipse cx="42" cy="16" rx="6.5" ry="9" transform="rotate(8 42 16)"/>
    <ellipse cx="52" cy="28" rx="6" ry="8.5" transform="rotate(15 52 28)"/>
  </g>
  <!-- 小爪印 2 -->
  <g transform="translate(150, 80) rotate(5) scale(0.7)" fill="#1a3300">
    <ellipse cx="30" cy="45" rx="16" ry="13"/>
    <ellipse cx="12" cy="22" rx="7" ry="9" transform="rotate(-10 12 22)"/>
    <ellipse cx="27" cy="14" rx="6.5" ry="9"/>
    <ellipse cx="42" cy="16" rx="6.5" ry="9" transform="rotate(8 42 16)"/>
    <ellipse cx="52" cy="28" rx="6" ry="8.5" transform="rotate(15 52 28)"/>
  </g>
  <!-- 爪印 3 -->
  <g transform="translate(220, 40) rotate(20) scale(0.55)" fill="#1a3300">
    <ellipse cx="30" cy="45" rx="16" ry="13"/>
    <ellipse cx="12" cy="22" rx="7" ry="9" transform="rotate(-10 12 22)"/>
    <ellipse cx="27" cy="14" rx="6.5" ry="9"/>
    <ellipse cx="42" cy="16" rx="6.5" ry="9" transform="rotate(8 42 16)"/>
    <ellipse cx="52" cy="28" rx="6" ry="8.5" transform="rotate(15 52 28)"/>
  </g>
</svg>
